<svg id="Layer_1" data-name="Layer 1" xmlns="http://www.w3.org/2000/svg" viewBox="0 0 500 500"><defs><style>.cls-1{fill:#fff;}.cls-2{opacity:0.15;}.cls-3{fill:#b3814b;}.cls-4{fill:#513b2c;}.cls-5{fill:none;stroke:#000;stroke-linecap:round;stroke-linejoin:round;stroke-width:20px;}</style></defs><title>takeaway-coffee</title><polygon class="cls-1" points="351.91 488.94 148.09 488.94 119.65 113.97 380.35 113.97 351.91 488.94"/><polygon class="cls-2" points="333.04 113.97 304.6 488.94 351.91 488.94 380.35 113.97 333.04 113.97"/><polygon class="cls-3" points="373.95 410.56 126.05 410.56 100.18 157.95 399.82 157.95 373.95 410.56"/><polygon class="cls-2" points="352.51 157.94 326.64 410.56 373.95 410.56 399.82 157.94 352.51 157.94"/><rect class="cls-4" x="100.55" y="63.92" width="298.9" height="50.61"/><rect class="cls-2" x="352.14" y="63.92" width="47.68" height="50.61" transform="translate(751.96 178.46) rotate(180)"/><polygon class="cls-4" points="362.24 11.06 137.76 11.06 120.14 63.92 379.86 63.92 362.24 11.06"/><polygon class="cls-2" points="362.24 11.06 314.93 11.06 332.55 63.92 379.86 63.92 362.24 11.06"/><circle class="cls-4" cx="250" cy="278.37" r="67.59"/><path class="cls-2" d="M282.33,219a67.6,67.6,0,0,1-91.69,91.69A67.59,67.59,0,1,0,282.33,219Z"/><polygon class="cls-5" points="373.95 410.56 126.05 410.56 100.18 157.95 399.82 157.95 373.95 410.56"/><rect class="cls-5" x="100.55" y="63.92" width="298.9" height="50.61"/><polygon class="cls-5" points="362.24 11.06 137.76 11.06 120.14 63.92 379.86 63.92 362.24 11.06"/><circle class="cls-5" cx="250" cy="278.37" r="67.59"/><polygon class="cls-5" points="377.01 157.95 380.35 113.97 119.65 113.97 122.99 157.95 377.01 157.95"/><polygon class="cls-5" points="142.15 410.56 148.09 488.94 351.91 488.94 357.85 410.56 142.15 410.56"/></svg>